Coordinates
version=1
nRows=13
nColumns=22
inDegrees=yes

Units are S.I. units (second, meters, Newtons, ...)
If the header above contains a line with 'inDegrees', this indicates whether rotational values are in degrees (yes) or radians (no).

endheader
time	pelvis_tilt	pelvis_list	pelvis_rotation	pelvis_tx	pelvis_ty	pelvis_tz	hip_flexion_r	hip_adduction_r	hip_rotation_r	knee_angle_r	ankle_angle_r	subtalar_angle_r	hip_flexion_l	hip_adduction_l	hip_rotation_l	knee_angle_l	ankle_angle_l	subtalar_angle_l	lumbar_extension	lumbar_bending	lumbar_rotation
      2.35000000	     -6.25309424	     -1.62889727	    -46.41932965	     -0.22726626	      0.84100376	      0.16500290	    -14.31953903	      3.17347192	      9.42158698	    -10.11182165	     24.63592147	     -0.55740013	     36.39776202	    -14.17319318	     -0.92606880	    -16.70984628	      8.91748317	      6.51818788	     -5.30043172	      5.52744372	     26.72324470
      2.36000000	     -6.31263724	     -1.49846576	    -46.86405279	     -0.21682241	      0.83941398	      0.17097932	    -14.81169559	      2.67958277	      9.85185877	    -10.41013450	     24.29270718	      0.10537315	     36.58488068	    -14.11499370	     -0.99344720	    -17.44143238	      9.03291868	      6.52387083	     -5.09248454	      5.36075595	     26.89109077
      2.37000000	     -6.40285710	     -1.32014664	    -47.34725838	     -0.20622109	      0.83794160	      0.17705654	    -15.22564153	      2.15930682	     10.40078356	    -10.73209029	     23.81415394	      0.54557601	     36.76088219	    -14.06166427	     -1.18027374	    -18.32717139	      9.06002396	      6.46296879	     -4.80910732	      5.18095366	     27.06085551
      2.38000000	     -6.49232357	     -1.07535684	    -47.80685182	     -0.19534761	      0.83657846	      0.18316332	    -15.56795023	      1.57803458	     10.88625566	    -11.07956390	     23.22020879	      1.25780934	     36.93452011	    -13.94235731	     -1.42360985	    -19.34777732	      8.92312868	      6.33895018	     -4.44817375	      4.95261940	     27.19917409
      2.39000000	     -6.59169309	     -0.79871541	    -48.29011000	     -0.18435441	      0.83538455	      0.18933781	    -15.82550314	      0.97987312	     11.45107061	    -11.50064083	     22.51430494	      1.83889777	     37.10032467	    -13.83007245	     -1.76350311	    -20.49266809	      8.58074350	      6.21781662	     -4.04713853	      4.70676789	     27.33229766
      2.40000000	     -6.68210500	     -0.45814652	    -48.74046667	     -0.17314115	      0.83434494	      0.19551620	    -15.98785593	      0.33681556	     12.01139670	    -11.99457444	     21.66996095	      2.57470447	     37.27568298	    -13.65194726	     -2.11241684	    -21.71366926	      8.04977376	      6.09840013	     -3.58473488	      4.41057608	     27.36536961
      2.41000000	     -6.75318499	     -0.09865020	    -49.19941857	     -0.16184000	      0.83353211	      0.20174110	    -16.05451089	     -0.31808324	     12.61230943	    -12.62828122	     20.72743465	      3.20514493	     37.45002686	    -13.46957300	     -2.51390096	    -23.03677419	      7.36555415	      6.04244835	     -3.12088698	      4.07839527	     27.39577311
      2.42000000	     -6.79015005	      0.30005144	    -49.60413822	     -0.15035755	      0.83294582	      0.20794562	    -16.01703022	     -0.99483397	     13.17281820	    -13.41251838	     19.63613248	      4.01610683	     37.63118858	    -13.21023835	     -2.86456880	    -24.40662632	      6.61977164	      6.02664162	     -2.64266778	      3.69031939	     27.32424552
      2.43000000	     -6.77034416	      0.70123598	    -49.93075507	     -0.13870293	      0.83267026	      0.21412225	    -15.90926331	     -1.66875822	     13.65957451	    -14.36224946	     18.34726068	      4.96860181	     37.77296027	    -12.85999853	     -3.11910537	    -25.78981806	      5.92451131	      6.03729537	     -2.20262165	      3.24822784	     27.13247797
      2.44000000	     -6.68368375	      1.10499800	    -50.23011503	     -0.12702437	      0.83272116	      0.22033712	    -15.67400784	     -2.33443934	     14.10429350	    -15.58835636	     16.95381908	      5.81534033	     37.86207911	    -12.45481749	     -3.38699567	    -27.18818193	      5.35312174	      6.02860499	     -1.81688809	      2.73343540	     26.90628047
      2.45000000	     -6.53191712	      1.47345828	    -50.42131249	     -0.11520335	      0.83315994	      0.22652196	    -15.37667778	     -2.95141182	     14.42600874	    -17.02202852	     15.27762032	      6.87060406	     37.83625688	    -11.94024194	     -3.51442957	    -28.49948054	      5.00192012	      5.93357946	     -1.51085136	      2.18204284	     26.54424972
      2.46000000	     -6.31919083	      1.83251405	    -50.55393679	     -0.10339515	      0.83391419	      0.23270251	    -14.90363835	     -3.52312426	     14.59675938	    -18.81953084	     13.46010424	      7.76740020	     37.71034959	    -11.35046421	     -3.64435022	    -29.72265657	      4.85208697	      5.75628612	     -1.26668036	      1.57126892	     26.12849246
      2.47000000	     -6.08057415	      2.12833034	    -50.59498741	     -0.09154316	      0.83500962	      0.23883477	    -14.31430932	     -3.99139696	     14.63099162	    -20.88801626	     11.34941050	      8.76567901	     37.44660158	    -10.70662044	     -3.68604770	    -30.79924841	      4.96464688	      5.43619185	     -1.10295292	      0.98147912	     25.62170891
